<?xml version="1.0" encoding="utf-8"?>
<!-- Generator: Adobe Illustrator 16.0.0, SVG Export Plug-In . SVG Version: 6.00 Build 0)  -->
<!DOCTYPE svg PUBLIC "-//W3C//DTD SVG 1.1//EN" "http://www.w3.org/Graphics/SVG/1.1/DTD/svg11.dtd">
<svg version="1.1" id="Layer_1" xmlns="http://www.w3.org/2000/svg" xmlns:xlink="http://www.w3.org/1999/xlink" x="0px" y="0px"
	 width="25px" height="25px" viewBox="0 0 25 25" enable-background="new 0 0 25 25" xml:space="preserve">
<path id="facebook-square-rounded-icon" fill="#333332" d="M20.114,2.441H4.88c-1.348,0-2.441,1.093-2.441,2.441v15.234
	c0,1.348,1.093,2.441,2.441,2.441h15.234c1.349,0,2.441-1.094,2.441-2.441V4.883C22.556,3.535,21.463,2.441,20.114,2.441z
	 M15.805,7.845c0,0-1.117,0-1.562,0c-0.552,0-0.666,0.226-0.666,0.796c0,0.475,0,1.378,0,1.378h2.228l-0.214,2.419h-2.014v7.229
	H10.69v-7.198H9.189v-2.45h1.501c0,0,0-0.352,0-1.929c0-1.811,0.969-2.757,3.116-2.757c0.352,0,1.998,0,1.998,0V7.845z"/>
</svg>
