<?xml version="1.0" encoding="utf-8"?>
<!-- Generator: Adobe Illustrator 16.0.0, SVG Export Plug-In . SVG Version: 6.00 Build 0)  -->
<!DOCTYPE svg PUBLIC "-//W3C//DTD SVG 1.1//EN" "http://www.w3.org/Graphics/SVG/1.1/DTD/svg11.dtd">
<svg version="1.1" id="Layer_1" xmlns="http://www.w3.org/2000/svg" xmlns:xlink="http://www.w3.org/1999/xlink" x="0px" y="0px"
	 width="25px" height="25px" viewBox="0 0 25 25" enable-background="new 0 0 25 25" xml:space="preserve">
<path id="github-2-circle-icon" fill="#333332" d="M8.152,15.197c0,0.033-0.038,0.061-0.085,0.061s-0.085-0.027-0.085-0.061
	s0.038-0.06,0.085-0.06S8.152,15.164,8.152,15.197z M8.27,15.336c-0.055,0-0.099,0.031-0.099,0.07s0.044,0.07,0.099,0.07
	s0.099-0.031,0.099-0.07S8.324,15.336,8.27,15.336z M8.75,15.799c-0.068,0-0.123,0.039-0.123,0.088c0,0.047,0.055,0.086,0.123,0.086
	s0.123-0.039,0.123-0.086C8.873,15.838,8.818,15.799,8.75,15.799z M7.654,14.844c-0.036,0-0.065,0.021-0.065,0.047
	s0.029,0.046,0.065,0.046s0.065-0.021,0.065-0.046S7.69,14.844,7.654,14.844z M7.859,14.974c-0.04,0-0.072,0.022-0.072,0.052
	c0,0.027,0.032,0.051,0.072,0.051s0.072-0.023,0.072-0.051C7.932,14.996,7.899,14.974,7.859,14.974z M8.492,15.566
	c-0.061,0-0.11,0.035-0.11,0.078s0.049,0.078,0.11,0.078s0.11-0.035,0.11-0.078S8.553,15.566,8.492,15.566z M22.559,12.5
	c0,5.555-4.504,10.059-10.059,10.059c-5.555,0-10.059-4.504-10.059-10.059c0-5.555,4.503-10.059,10.059-10.059
	C18.055,2.441,22.559,6.945,22.559,12.5z M17.378,13.029c0.03-0.066,0.059-0.133,0.084-0.203c0.787-0.063,1.599-0.057,2.414,0.022
	l0.013-0.134c-0.805-0.078-1.605-0.085-2.383-0.026c0.125-0.399,0.19-0.85,0.186-1.362c-0.01-1.089-0.373-1.937-0.943-2.64
	c0.109-0.663,0.027-1.326-0.18-1.989c-0.815,0.067-1.549,0.334-2.202,0.798c-1.221-0.248-2.441-0.264-3.662,0
	c-0.762-0.515-1.51-0.767-2.247-0.798c-0.218,0.73-0.252,1.45-0.067,2.157c-0.643,0.682-0.888,1.51-0.876,2.426
	c0.007,0.525,0.087,0.992,0.237,1.405c-0.766-0.056-1.554-0.049-2.346,0.028l0.013,0.134c0.807-0.078,1.608-0.084,2.388-0.023
	c0.028,0.069,0.057,0.138,0.09,0.204c-0.844-0.021-1.604,0.051-2.315,0.227l0.032,0.131c0.722-0.178,1.496-0.249,2.359-0.221
	c0.571,1.016,1.67,1.611,3.271,1.801c-0.372,0.303-0.572,0.658-0.624,1.062c0,0-0.168,0-0.848,0c-1.139,0-1.449-1.452-2.629-1.309
	c1.145,0.567,0.916,2.382,2.747,2.382c0.616,0,0.747,0,0.77,0v1.662c0.008,0.27-0.109,0.449-0.298,0.573
	c0.656,0.065,1.148-0.261,1.148-0.663c0-0.401,0-2.002,0-2.197c0-0.196,0.205-0.211,0.205-0.211v2.565
	c0.009,0.255-0.115,0.401-0.247,0.54c0.578,0.022,1.121-0.093,1.146-0.584c0,0,0-2.333,0-2.457c0-0.123,0.202-0.126,0.202,0
	c0,0.127,0,2.341,0,2.341c0.006,0.415,0.364,0.751,1.124,0.7c-0.203-0.164-0.266-0.329-0.266-0.568s0-2.537,0-2.537
	s0.209-0.012,0.209,0.211c0,0.221,0,1.77,0,2.14c0,0.477,0.572,0.673,1.225,0.654c-0.213-0.16-0.358-0.351-0.359-0.606V16.09
	c-0.021-0.378-0.176-0.734-0.477-1.066c1.463-0.226,2.518-0.81,3.043-1.857c0.867-0.029,1.643,0.042,2.366,0.221l0.032-0.131
	C18.996,13.079,18.23,13.006,17.378,13.029z M10.436,16.169c-0.075,0-0.136,0.044-0.136,0.097s0.061,0.097,0.136,0.097
	s0.136-0.044,0.136-0.097S10.511,16.169,10.436,16.169z M9.986,16.16c-0.075,0-0.136,0.043-0.136,0.097s0.061,0.097,0.136,0.097
	s0.136-0.043,0.136-0.097S10.062,16.16,9.986,16.16z M9.531,16.146c-0.075,0-0.136,0.044-0.136,0.097s0.061,0.097,0.136,0.097
	s0.136-0.044,0.136-0.097S9.606,16.146,9.531,16.146z M9.099,16.018c-0.075,0-0.136,0.044-0.136,0.098
	c0,0.053,0.061,0.096,0.136,0.096s0.136-0.043,0.136-0.096C9.235,16.062,9.174,16.018,9.099,16.018z"/>
</svg>
