<?xml version="1.0" encoding="utf-8"?>
<!-- Generator: Adobe Illustrator 16.0.0, SVG Export Plug-In . SVG Version: 6.00 Build 0)  -->
<!DOCTYPE svg PUBLIC "-//W3C//DTD SVG 1.1//EN" "http://www.w3.org/Graphics/SVG/1.1/DTD/svg11.dtd">
<svg version="1.1" id="Layer_1" xmlns="http://www.w3.org/2000/svg" xmlns:xlink="http://www.w3.org/1999/xlink" x="0px" y="0px"
	 width="25px" height="25px" viewBox="0 0 25 25" enable-background="new 0 0 25 25" xml:space="preserve">
<path id="linkedin-square-rounded-icon" fill="#333332" d="M20.114,2.441H4.88c-1.348,0-2.441,1.093-2.441,2.441v15.234
	c0,1.348,1.093,2.441,2.441,2.441h15.234c1.349,0,2.441-1.094,2.441-2.441V4.883C22.556,3.535,21.463,2.441,20.114,2.441z
	 M8.838,19.189H6.077v-8.919h2.761V19.189z M7.444,9.103c-0.902,0-1.633-0.737-1.633-1.646c0-0.909,0.731-1.646,1.633-1.646
	c0.901,0,1.632,0.737,1.632,1.646C9.077,8.366,8.346,9.103,7.444,9.103z M19.183,19.189h-2.747c0,0,0-3.398,0-4.682
	c0-1.285-0.487-2.001-1.503-2.001c-1.104,0-1.683,0.746-1.683,2.001c0,1.373,0,4.682,0,4.682h-2.647v-8.919h2.647v1.201
	c0,0,0.797-1.474,2.688-1.474c1.892,0,3.245,1.155,3.245,3.544C19.183,15.931,19.183,19.189,19.183,19.189z"/>
</svg>
