<?xml version="1.0" encoding="utf-8"?>
<!-- Generator: Adobe Illustrator 16.0.0, SVG Export Plug-In . SVG Version: 6.00 Build 0)  -->
<!DOCTYPE svg PUBLIC "-//W3C//DTD SVG 1.1//EN" "http://www.w3.org/Graphics/SVG/1.1/DTD/svg11.dtd">
<svg version="1.1" id="Layer_1" xmlns="http://www.w3.org/2000/svg" xmlns:xlink="http://www.w3.org/1999/xlink" x="0px" y="0px"
	 width="25px" height="25px" viewBox="0 0 25 25" enable-background="new 0 0 25 25" xml:space="preserve">
<path id="twitter-icon" fill="#333332" d="M22.559,6.261c-0.74,0.329-1.535,0.55-2.371,0.65c0.853-0.511,1.508-1.319,1.815-2.283
	c-0.798,0.473-1.681,0.816-2.621,1.001c-0.753-0.802-1.825-1.303-3.013-1.303c-2.664,0-4.622,2.486-4.02,5.068
	c-3.43-0.172-6.472-1.815-8.507-4.312c-1.081,1.854-0.561,4.282,1.277,5.51c-0.676-0.021-1.313-0.207-1.869-0.516
	c-0.045,1.912,1.325,3.7,3.31,4.099c-0.581,0.158-1.217,0.194-1.864,0.07c0.525,1.641,2.049,2.834,3.855,2.867
	c-1.735,1.359-3.92,1.967-6.11,1.709c1.827,1.171,3.996,1.854,6.327,1.854c7.663,0,11.992-6.472,11.731-12.276
	C21.306,7.815,22.006,7.088,22.559,6.261z"/>
</svg>
